REM MD5 4ae5e306c982083e97241d5a4f16c98f
FILE "Euro Demo 07-99 (Germany).bin" BINARY
  TRACK 01 MODE2/2352
    INDEX 01 00:00:00
  TRACK 02 AUDIO
    INDEX 00 37:44:31
    INDEX 01 37:46:31
  TRACK 03 AUDIO
    INDEX 00 39:44:48
    INDEX 01 39:46:48
REM LEADOUT 42:48:05
